<?xml version="1.0" encoding="UTF-8" standalone="no"?>
<!-- Created with Inkscape (http://www.inkscape.org/) -->

<svg
   xmlns:dc="http://purl.org/dc/elements/1.1/"
   xmlns:cc="http://creativecommons.org/ns#"
   xmlns:rdf="http://www.w3.org/1999/02/22-rdf-syntax-ns#"
   xmlns:svg="http://www.w3.org/2000/svg"
   xmlns="http://www.w3.org/2000/svg"
   xmlns:sodipodi="http://sodipodi.sourceforge.net/DTD/sodipodi-0.dtd"
   xmlns:inkscape="http://www.inkscape.org/namespaces/inkscape"
   width="210mm"
   height="297mm"
   viewBox="0 0 210 297"
   version="1.1"
   id="svg8"
   inkscape:version="0.92.5 (2060ec1f9f, 2020-04-08)"
   sodipodi:docname="Happy_Birthday.svg">
  <defs
     id="defs2" />
  <sodipodi:namedview
     id="base"
     pagecolor="#ffffff"
     bordercolor="#666666"
     borderopacity="1.0"
     inkscape:pageopacity="0.0"
     inkscape:pageshadow="2"
     inkscape:zoom="1.4"
     inkscape:cx="318.94145"
     inkscape:cy="853.50314"
     inkscape:document-units="mm"
     inkscape:current-layer="layer1"
     showgrid="false"
     inkscape:window-width="1920"
     inkscape:window-height="1001"
     inkscape:window-x="-9"
     inkscape:window-y="-9"
     inkscape:window-maximized="1" />
  <metadata
     id="metadata5">
    <rdf:RDF>
      <cc:Work
         rdf:about="">
        <dc:format>image/svg+xml</dc:format>
        <dc:type
           rdf:resource="http://purl.org/dc/dcmitype/StillImage" />
        <dc:title></dc:title>
      </cc:Work>
    </rdf:RDF>
  </metadata>
  <g
     inkscape:label="Layer 1"
     inkscape:groupmode="layer"
     id="layer1">
    <g
       aria-label="Happy Birthday"
       transform="matrix(0.5733822,0,0,0.75927267,-20.327624,-46.372653)"
       style="font-style:normal;font-variant:normal;font-weight:normal;font-stretch:normal;font-size:40px;line-height:1.25;font-family:Sriracha;-inkscape-font-specification:Sriracha;letter-spacing:0px;word-spacing:0px;fill:#000000;fill-opacity:1;stroke:none"
       id="flowRoot10">
      <path
         d="m 97.972266,110.12469 q -7.88,0.96 -11.16,1.68 l -2.16,8.56 q -0.28,1.16 -0.84,1.56 -0.52,0.4 -2.12,0.4 -1.24,0 -1.84,-0.44 -0.56,-0.4 -0.56,-1.4 0,-0.44 0.12,-0.84 l 5.48,-21.640002 q 0.44,-1.760001 0.92,-2.320001 0.52,-0.6 1.84,-0.6 1.08,0 1.96,0.24 0.92,0.24 0.96,0.72 0,0.08 -0.52,2.160001 -0.8,3.080002 -2.28,9.360002 5.92,-1.2 11.24,-1.64 l 1.840004,-7.440002 q 0.4,-1.600001 1.08,-2.360001 0.72,-0.8 1.92,-1.04 1.48,0.280001 1.92,0.48 0.48,0.160001 0.64,0.52 -0.52,1.480001 -0.8,2.76 -0.24,1.240003 -0.28,1.480003 -0.52,2.8 -1.24,5.72 1.56,0.68 1.56,1.84 0,1.16 -2.48,1.96 -0.44,1.6 -1.64,6.96 -0.28,1.48 -0.8,3.68 -0.56,2.2 -1.760004,2.2 -3.68,0 -3.68,-1.72 0,-0.36 2.68,-10.84 z"
         style=""
         id="path18" />
      <path
         d="m 123.01164,119.72469 q 0.08,1.04 0.28,1.88 -0.08,0.24 -0.72,0.48 -0.6,0.24 -1.04,0.24 -1.44,0 -2.08,-0.44 -0.6,-0.4 -0.6,-1.24 0,-0.8 0.16,-1.6 -0.88,1.2 -2.6,2 -1.68,0.76 -2.72,0.76 -2.68,0 -4.48,-1.56 -1.76,-1.56 -1.76,-5 0,-3.24 1.52,-6.08 1.56,-2.88 4.28,-4.6 2.72,-1.76 6.04,-1.76 0.64,0 1.68,0.36 1.04,0.32 2.08,1.16 1.08,0.8 1.8,2.08 0.32,0 0.76,0.32 0.44,0.32 0.44,0.64 0,0.36 -0.12,0.72 z m -1.8,-11.2 q -0.24,-0.88 -0.96,-1.48 -0.68,-0.6 -1.24,-0.6 -1.84,0 -3.48,1.32 -1.6,1.28 -2.6,3.2 -1,1.92 -1,3.64 0,1.68 0.4,2.76 0.4,1.08 1.56,1.08 1,0 2.28,-0.6 1.32,-0.6 2.32,-1.6 1.04,-1.04 1.36,-2.16 z"
         style=""
         id="path20" />
      <path
         d="m 132.24977,120.04469 q -0.04,0.24 -1.08,4.36 -1,4.16 -1.4,5.24 -0.16,0.44 -0.96,0.64 -0.8,0.24 -1.16,0.24 -0.88,0 -1.44,-0.56 -0.6,-0.56 -0.64,-1.68 l 2.8,-11.48 q 1.6,-6.28 2.64,-10.72 0,-0.24 -0.28,-1.28 -0.12,-0.64 -0.24,-1.2 -0.12,-0.56 -0.16,-0.84 0.08,-0.52 0.8,-0.84 0.76,-0.32 1.4,-0.32 0.96,0 1.88,0.68 0.96,0.68 1.08,1.64 l -0.12,1.04 q 1.8,-2.24 4.6,-2.24 2.28,0 3.92,1.12 1.68,1.08 2.56,2.96 0.88,1.84 0.88,4.08 0,3 -1.16,5.64 -1.16,2.64 -3.48,4.28 -2.32,1.6 -5.6,1.6 -1.04,0 -2.68,-0.68 -1.64,-0.72 -2.16,-1.68 z m 1.24,-5.08 q -0.08,0.48 -0.08,0.68 0.04,1 0.64,1.76 0.64,0.76 1.48,1.2 0.84,0.4 1.4,0.4 1.76,0 3.08,-1.32 1.36,-1.36 2.08,-3.32 0.72,-2 0.72,-3.8 0,-1.68 -0.92,-2.96 -0.88,-1.32 -2.24,-1.32 -1.52,0 -2.52,0.68 -0.96,0.64 -2.2,2 z"
         style=""
         id="path22" />
      <path
         d="m 153.34352,120.04469 q -0.04,0.24 -1.08,4.36 -1,4.16 -1.4,5.24 -0.16,0.44 -0.96,0.64 -0.8,0.24 -1.16,0.24 -1.8,0 -1.92,-2.2 0.76,-4.56 2.56,-12.28 1.8,-7.76 3.12,-12.68 0.08,-0.6 0.72,-1.16 0.68,-0.6 1.2,-0.6 0.92,0 1.52,0.56 0.64,0.52 0.76,1.52 1.6,-1.08 3.68,-1.08 2.24,0 4.08,1 1.84,0.96 2.88,2.8 1.08,1.84 1.08,4.28 0,3 -1.16,5.68 -1.16,2.68 -3.48,4.36 -2.32,1.68 -5.6,1.68 -1.04,0 -2.68,-0.68 -1.64,-0.72 -2.16,-1.68 z m 1.24,-5.08 q -0.08,0.48 -0.08,0.68 0.04,1 0.64,1.76 0.64,0.76 1.48,1.2 0.84,0.4 1.4,0.4 1.76,0 3.08,-1.24 1.36,-1.24 2.08,-3.12 0.72,-1.88 0.72,-3.68 0,-2.36 -1.2,-3.56 -1.2,-1.24 -2.96,-1.24 -0.92,0 -1.84,0.36 -0.88,0.36 -1.56,1.08 z"
         style=""
         id="path24" />
      <path
         d="m 181.79727,134.80469 q -0.4,0.36 -0.8,0.64 -0.4,0.32 -0.68,0.32 -1,0 -1.6,-0.84 -0.56,-0.84 -0.6,-2.24 l 3.68,-14.04 q -1.04,1.96 -2.68,3 -1.64,1 -3.4,1 -1.64,0 -3.04,-1 -1.36,-1.04 -2.16,-2.64 -0.8,-1.6 -0.8,-3.2 0,-2.04 0.64,-5.12 0.64,-3.12 2.08,-5.52 1.44,-2.44 3.76,-2.44 0.96,0 1.56,0.24 0.64,0.24 0.64,0.64 0,0.12 -0.08,0.28 -1.76,2.88 -2.68,6.16 -0.88,3.28 -0.88,5.8 0,0.76 0.04,1.08 0.08,0.88 0.56,1.48 0.48,0.56 1.44,0.56 2.36,0 4.52,-5 2.2,-5 3.44,-9.56 0.24,-0.84 0.4,-1.12 0.2,-0.32 0.68,-0.4 0.48,-0.12 1.68,-0.12 2.16,0 2.16,1.28 0,0.28 -0.24,1 -0.36,1.56 -1.24,5.76 -1.76,8.2 -2.48,10.88 -1.68,6.24 -2.28,9 l -0.88,3.48 z"
         style=""
         id="path26" />
      <path
         d="m 203.89664,102.20469 q -1.24,-1.32 -1.24,-2.440003 0,-0.88 0.68,-1.8 1.8,-1.16 5.36,-1.88 3.6,-0.76 7.72,-0.76 4.08,0 6,1.64 1.92,1.600001 1.92,4.480003 0,2.4 -1.56,3.76 -1.56,1.36 -4.4,2.12 2.64,0.44 3.48,2.12 0.84,1.68 0.84,3.84 0,3 -1.72,5.2 -1.68,2.16 -4.44,3.28 -2.72,1.12 -5.8,1.12 -1.72,0 -3.68,-0.48 -1.96,-0.44 -3.4,-1.52 -1.4,-1.12 -1.4,-2.84 0,-0.56 0.12,-1.08 l 4.08,-16.48 q -1.96,0.76 -2.56,1.72 z m 11.6,-3.240003 q -1.68,0 -3.56,0.2 -0.16,0.840003 -0.48,1.960003 -0.2,0.92 -0.52,2.2 -0.32,1.28 -0.68,2.96 l 0.6,-0.04 q 3,-0.24 5.48,-1.32 2.52,-1.12 2.52,-2.88 0,-1.32 -0.8,-2.200003 -0.76,-0.88 -2.56,-0.88 z m -5.84,11.040003 q -1.08,3.6 -2.28,8.2 1.16,0.8 2.84,0.8 1.8,0 3.44,-0.6 1.64,-0.64 2.64,-1.84 1.04,-1.2 1.04,-2.84 0,-1.56 -0.8,-2.88 -0.76,-1.32 -2.36,-1.32 -1.72,0 -4.52,0.48 z"
         style=""
         id="path28" />
      <path
         d="m 231.08164,98.044688 q 0,-1.240001 0.76,-2.200001 0.8,-0.96 2.2,-0.96 1.48,0 2.56,0.92 1.12,0.920001 1.12,2.08 0,1.16 -1.12,2 -1.12,0.840003 -2.6,0.840003 -1.44,0 -2.2,-0.72 -0.72,-0.760003 -0.72,-1.960002 z m -3.8,21.080002 q 0,-0.72 3.56,-14.4 l -0.24,-1.48 q 0,-0.44 0.52,-0.68 0.52,-0.24 2,-0.24 1.16,0 1.68,0.64 0.56,0.64 0.56,1.52 0,0.24 -0.08,0.64 l -3.56,14.4 0.24,1.48 q 0,0.44 -0.52,0.68 -0.52,0.24 -2,0.24 -1.32,0 -1.72,-0.76 -0.4,-0.8 -0.44,-2.04 z"
         style=""
         id="path30" />
      <path
         d="m 242.13727,120.28469 q -0.04,0.24 -0.2,0.96 -0.12,0.68 -0.68,0.96 -0.52,0.28 -1.68,0.28 -1.32,0 -1.92,-0.28 -0.6,-0.28 -0.6,-1.2 l 1.92,-7.64 q 1.6,-6.6 2.12,-8.4 l -1,-1.2 q -0.12,-0.12 -0.12,-0.28 0,-0.4 0.88,-0.64 0.88,-0.28 2.44,-0.28 1.4,0 1.88,0.8 0.48,0.76 0.6,2 l -0.28,1.04 q 1.28,-1.56 2.96,-2.56 1.72,-1.04 3.04,-1.04 1.72,0 2.68,0.6 0.96,0.6 0.96,1.56 0,0.84 -0.6,1.76 -0.56,0.88 -1.44,1.52 -0.88,0.6 -1.72,0.68 -0.8,0 -1.08,-0.2 -0.28,-0.2 -0.28,-0.6 l 0.24,-1.32 q -3.2,0.88 -5.8,4.24 z"
         style=""
         id="path32" />
      <path
         d="m 259.78352,117.32469 q 0,0.92 0.32,1.28 0.32,0.36 1.2,0.36 1.16,0 1.92,-0.48 0.8,-0.52 1.92,-1.6 0.32,-0.32 0.72,-0.32 0.48,0 0.76,0.72 0.28,0.68 0.28,1.4 0,1 -0.8,1.96 -0.8,0.96 -2.32,1.56 -1.52,0.6 -3.56,0.6 -2.72,0 -3.88,-1.24 -1.12,-1.24 -1.12,-3.8 0,-0.36 0.36,-1.88 0.36,-1.52 0.92,-3.64 l 1.12,-4.56 -2.44,0.2 q -0.48,0 -0.72,-0.36 -0.24,-0.36 -0.24,-0.88 0,-1 0.72,-2 0.08,-0.12 0.8,-0.24 0.72,-0.12 1.76,-0.24 l 1.08,-0.12 0.92,-4.120002 q 0.4,-1.040001 1.2,-1.6 0.84,-0.6 1.56,-0.6 0.8,0 1.36,0.48 0.56,0.479999 0.6,1.119999 l -1,4.280003 q 1.56,-0.2 2.88,-0.32 1.36,-0.16 2.12,-0.16 1.52,0 1.52,1.76 0,0.68 -0.6,1.24 -0.56,0.52 -1.24,0.64 l -5.6,0.56 z"
         style=""
         id="path34" />
      <path
         d="m 276.64352,112.08469 q 2.2,-4.96 4.44,-7.08 2.24,-2.12 4,-2.12 2.48,0 3.92,1.24 1.48,1.24 1.52,3 l -3.32,13.24 q -0.32,1.24 -0.68,1.8 -0.36,0.6 -0.8,0.72 -0.44,0.16 -1.24,0.16 -0.96,0 -1.6,-0.48 -0.6,-0.44 -0.6,-1.16 0,-0.24 0.04,-0.36 0.44,-1.96 2.16,-9.16 1.12,-4.36 1.12,-4.68 0,-0.56 -0.56,-0.56 -0.44,0 -2.68,2.36 -2.24,2.36 -4.4,5.28 -2.12,2.92 -2.72,4.96 -0.04,0.16 -0.12,0.48 -0.08,0.28 -0.12,0.44 -0.16,0.64 -0.36,1 -0.2,0.32 -0.76,0.56 -0.52,0.2 -1.56,0.2 -1.16,0 -1.72,-0.44 -0.52,-0.44 -0.56,-1.4 0.56,-2.2 0.76,-3.28 l 6.24,-24.800002 q 0.16,-0.560001 0.84,-0.920001 0.72,-0.4 1.44,-0.4 1.2,0 1.72,0.64 0.52,0.64 0.64,1.76 z"
         style=""
         id="path36" />
      <path
         d="m 310.02102,92.164687 q 0.16,-0.6 0.92,-0.959999 0.8,-0.400001 1.68,-0.400001 0.72,0 1.56,0.32 0.84,0.32 0.84,0.920001 l -2.52,9.840002 q -3.32,12.92 -3.88,15.76 -0.24,1.2 -0.24,1.84 0,1.08 0.24,2.12 -0.08,0.24 -0.64,0.48 -0.52,0.24 -0.96,0.24 -0.8,0 -1.76,-0.2 -0.96,-0.2 -1.2,-0.44 -0.36,-0.32 -0.36,-1.28 0,-0.72 0.16,-1.36 -0.84,1.2 -2.56,2 -1.68,0.76 -2.72,0.76 -6.12,0 -6.12,-6.6 0,-2.88 1.28,-5.76 1.32,-2.88 3.72,-4.76 2.44,-1.88 5.64,-1.88 0.88,0 1.96,0.72 1.08,0.68 1.76,1.56 0.88,-3.72 1.56,-6.200003 0.32,-1.319999 0.72,-3 0.44,-1.72 0.92,-3.72 z m -4.08,16.640003 q -0.24,-0.88 -1.16,-1.6 -0.88,-0.76 -1.44,-0.76 -1.84,0 -3.44,1.2 -1.6,1.2 -2.56,3.12 -0.92,1.92 -0.92,3.96 0,1.52 0.56,2.72 0.56,1.2 1.72,1.2 1,0 2.32,-0.64 1.36,-0.68 2.4,-1.72 1.04,-1.08 1.28,-2.2 z"
         style=""
         id="path38" />
      <path
         d="m 329.43477,121.12469 q -0.24,0.72 -1.28,0.96 -1,0.28 -1.76,0.28 -0.68,0 -0.92,-0.36 -0.24,-0.32 -0.4,-0.96 -0.16,-0.68 -0.24,-0.96 -1.68,1.16 -3.48,1.76 -1.76,0.64 -2.96,0.64 -1.2,0 -2.48,-0.56 -1.24,-0.52 -2.16,-1.84 -0.92,-1.36 -0.92,-3.6 0,-2.28 1.4,-5.48 1.44,-3.24 4.08,-5.6 2.68,-2.4 6.24,-2.4 1.8,0 3.56,0.88 1.76,0.84 2.88,2.16 1.12,1.28 1.16,2.6 l -0.52,1.4 q -1.12,3.12 -1.76,5.32 -0.64,2.16 -0.64,3.88 0,1.16 0.2,1.88 z m -4.56,-4.4 q 0.36,-1 0.88,-2.6 0.88,-3.04 1.68,-5.12 -0.16,-0.56 -0.72,-1.16 -0.56,-0.64 -1.16,-1.04 -0.6,-0.44 -0.84,-0.44 -1.48,0 -3.16,1.8 -1.68,1.76 -2.84,4.2 -1.12,2.44 -1.12,4.24 0,0.8 0.48,1.52 0.48,0.68 1.04,0.68 0.92,0 2.92,-0.68 2.04,-0.72 2.84,-1.4 z"
         style=""
         id="path40" />
      <path
         d="m 338.63289,116.12469 q -0.12,0.48 -0.12,0.96 0,0.84 0.44,1.36 0.44,0.52 1.4,0.52 1.24,0 2.68,-0.72 1.44,-0.72 2.44,-1.76 l 0.76,-3.16 q 0.76,-3.2 1.76,-6.92 0.44,-1.6 1.12,-2.6 0.72,-1.04 2.24,-1.04 2.12,0 2.12,1.28 0,0.2 -0.12,0.52 -0.08,0.28 -0.12,0.48 -1.4,5.92 -1.56,6.6 -1.88,8.4 -2.84,11.68 -1.4,4.84 -4,6.88 -2.6,2.04 -7.24,2.04 -2.8,0 -3.76,-0.84 -0.96,-0.8 -0.96,-2 0,-0.72 0.56,-1.24 0.6,-0.52 1.32,-0.52 0.6,0 0.92,0.12 0.36,0.16 0.76,0.44 0.48,0.36 0.96,0.52 0.48,0.2 1.4,0.2 0.68,0 1.64,-0.56 0.96,-0.56 1.84,-1.8 0.92,-1.2 1.44,-2.96 l 1,-3.48 q -1.36,1.28 -2.64,1.88 -1.28,0.64 -2.88,0.64 -2.64,0 -4.08,-1.64 -1.4,-1.64 -1.4,-4.36 0,-0.8 0.24,-1.76 l 2.56,-10.16 -1.04,-1.2 q -0.12,-0.12 -0.12,-0.28 0,-0.4 0.88,-0.64 0.88,-0.28 2.44,-0.28 2.56,0 2.8,2.44 z"
         style=""
         id="path42" />
    </g>
  </g>
</svg>
